<?xml version="1.0" standalone="no"?>
<!DOCTYPE svg PUBLIC "-//W3C//DTD SVG 20010904//EN"
 "http://www.w3.org/TR/2001/REC-SVG-20010904/DTD/svg10.dtd">
<svg version="1.0" xmlns="http://www.w3.org/2000/svg"
 width="512.000000pt" height="512.000000pt" viewBox="0 0 512.000000 512.000000"
 preserveAspectRatio="xMidYMid meet">

<g transform="translate(0.000000,512.000000) scale(0.100000,-0.100000)"
fill="#1B263B" stroke="none">
<path d="M2370 5114 c-19 -2 -78 -9 -130 -15 -788 -90 -1517 -582 -1919 -1296
-352 -625 -417 -1415 -173 -2099 118 -330 310 -647 530 -877 48 -49 72 -67 91
-67 56 0 94 56 70 103 -7 12 -33 45 -58 72 -258 276 -466 665 -559 1045 -53
215 -66 330 -66 580 0 253 14 376 69 595 171 679 646 1261 1280 1570 167 81
290 126 462 170 225 56 338 69 593 69 253 0 376 -14 595 -69 846 -213 1527
-894 1740 -1740 55 -219 69 -342 69 -595 0 -253 -14 -376 -69 -595 -213 -846
-894 -1527 -1740 -1740 -217 -54 -342 -69 -590 -69 -244 0 -366 13 -571 63
-316 78 -622 221 -874 410 -52 39 -106 74 -118 77 -30 8 -76 -24 -80 -56 -7
-46 9 -67 99 -134 386 -289 835 -460 1324 -506 557 -51 1145 97 1617 408 1266
835 1539 2571 591 3747 -409 507 -974 829 -1633 930 -100 15 -472 28 -550 19z"/>
<path d="M2838 4736 c-105 -30 -189 -103 -237 -205 -22 -47 -26 -70 -26 -146
0 -77 4 -98 27 -147 113 -241 417 -289 595 -95 66 73 93 142 93 242 0 101 -27
170 -96 244 -91 99 -234 142 -356 107z m163 -151 c86 -31 139 -107 139 -200 0
-188 -223 -283 -355 -151 -51 51 -69 100 -63 172 7 86 58 148 146 180 49 17
80 17 133 -1z"/>
<path d="M2076 4720 c-49 -11 -95 -25 -103 -32 -34 -28 -32 -53 28 -354 54
-265 63 -302 85 -321 33 -30 69 -29 99 2 29 28 29 37 10 125 -8 36 -14 70 -15
77 0 7 50 -26 111 -73 62 -46 123 -87 136 -90 31 -8 77 24 81 56 7 45 -9 66
-93 128 -46 35 -87 67 -90 71 -2 5 15 28 38 52 108 113 81 280 -57 351 -54 28
-127 30 -230 8z m187 -161 c39 -48 4 -111 -71 -124 -23 -3 -45 -4 -50 -1 -11
6 -36 126 -28 133 11 11 72 21 101 17 17 -2 38 -14 48 -25z"/>
<path d="M3583 4520 c-12 -5 -26 -17 -32 -28 -21 -39 -181 -590 -181 -623 0
-57 56 -98 108 -78 38 15 498 346 522 377 23 29 24 41 9 76 -14 30 -55 47 -88
35 -13 -5 -95 -61 -183 -125 -88 -63 -162 -114 -164 -111 -2 2 23 95 57 206
33 111 58 210 54 220 -12 40 -64 66 -102 51z"/>
<path d="M1498 4486 c-51 -14 -201 -107 -224 -140 -8 -11 -14 -30 -14 -42 0
-21 299 -485 342 -531 39 -42 109 -21 123 37 5 19 -7 46 -50 114 -30 49 -54
90 -53 91 2 1 25 16 51 34 62 42 103 99 118 165 37 167 -125 318 -293 272z
m96 -150 c44 -18 63 -64 46 -106 -10 -25 -85 -90 -103 -90 -11 0 -98 143 -90
150 8 9 103 60 110 60 2 0 18 -6 37 -14z"/>
<path d="M939 4047 c-46 -25 -169 -160 -190 -210 -9 -21 -9 -34 -1 -52 6 -13
118 -110 249 -215 199 -159 243 -190 270 -190 41 0 73 30 73 69 0 34 -15 52
-90 111 -30 24 -59 47 -64 52 -6 4 4 24 23 48 95 118 95 257 0 347 -71 67
-186 84 -270 40z m170 -153 c30 -39 27 -84 -10 -130 -17 -22 -37 -39 -43 -38
-7 1 -40 23 -74 49 l-61 48 35 43 c41 49 46 52 96 53 28 1 41 -5 57 -25z"/>
<path d="M3964 3814 c-132 -97 -245 -183 -251 -192 -28 -35 -15 -71 64 -179
83 -112 104 -133 141 -133 30 0 72 42 72 72 0 13 -25 59 -56 102 -31 42 -53
81 -48 85 27 23 93 71 97 71 3 0 26 -30 52 -66 52 -72 84 -91 126 -74 25 11
49 46 49 74 0 7 -23 44 -50 82 -28 38 -49 72 -48 76 2 4 26 23 53 43 l50 35
20 -27 c70 -96 102 -128 133 -131 45 -5 87 37 78 78 -5 28 -142 223 -174 248
-38 29 -66 15 -308 -164z"/>
<path d="M2460 3854 c-335 -40 -598 -162 -815 -379 -246 -245 -379 -566 -378
-915 0 -202 48 -411 133 -580 119 -236 344 -461 580 -580 289 -146 669 -175
975 -74 327 107 612 350 765 654 85 169 133 377 133 580 0 203 -48 411 -133
580 -180 358 -540 627 -928 695 -87 15 -273 26 -332 19z m323 -170 c448 -85
815 -455 903 -911 35 -180 18 -418 -43 -586 -141 -392 -467 -675 -870 -753
-116 -23 -310 -23 -426 0 -461 89 -824 452 -913 913 -35 180 -18 418 43 586
155 433 525 721 988 771 64 6 233 -4 318 -20z"/>
<path d="M2930 3384 c-19 -8 -48 -27 -63 -42 -33 -31 -127 -211 -127 -242 0
-31 44 -70 78 -70 38 0 64 29 103 115 38 86 55 105 88 105 14 -1 80 -29 146
-63 111 -57 120 -64 123 -93 2 -24 -66 -169 -299 -637 -166 -333 -309 -609
-318 -613 -9 -3 -87 -9 -173 -11 -121 -5 -161 -3 -173 7 -31 25 -425 695 -425
721 0 14 8 33 18 41 34 30 229 138 249 138 27 0 31 -6 153 -209 165 -274 166
-274 333 57 64 128 117 242 117 253 0 30 -44 69 -78 69 -41 0 -61 -27 -142
-190 -39 -79 -72 -146 -74 -147 -2 -2 -35 50 -74 115 -76 127 -118 172 -177
192 -72 24 -123 10 -264 -75 -180 -107 -219 -156 -209 -269 4 -45 28 -91 219
-410 118 -198 229 -374 248 -392 53 -52 83 -58 289 -51 205 6 249 18 297 82
14 17 161 306 327 641 277 559 302 614 306 670 3 47 0 69 -16 100 -32 61 -67
88 -212 158 -147 72 -198 81 -270 50z"/>
<path d="M4258 3282 c-160 -46 -275 -85 -287 -96 -12 -11 -21 -30 -21 -43 0
-27 47 -197 63 -228 77 -151 287 -203 473 -116 128 60 197 155 198 271 0 72
-45 243 -71 273 -26 28 -72 20 -355 -61z m277 -228 c-12 -66 -71 -113 -174
-140 -118 -30 -201 13 -231 120 -7 25 -11 48 -9 50 2 2 90 28 194 58 l190 54
18 -55 c11 -33 16 -69 12 -87z"/>
<path d="M820 3308 c-329 -21 -344 -24 -364 -80 -19 -54 -5 -69 255 -274 138
-108 264 -202 280 -207 41 -16 83 16 87 66 3 38 -5 50 -67 98 l-34 27 35 113
34 114 65 8 c50 6 69 13 87 33 12 14 22 34 22 44 0 26 -40 68 -70 73 -14 3
-162 -4 -330 -15z m51 -205 c-10 -32 -21 -57 -27 -55 -5 1 -37 23 -72 50 l-63
47 48 6 c26 3 67 7 89 7 l42 2 -17 -57z"/>
<path d="M847 2718 c-12 -13 -58 -82 -102 -155 l-79 -132 -48 45 c-53 49 -73
54 -112 23 -19 -15 -26 -30 -26 -55 0 -29 13 -49 81 -124 70 -78 84 -90 113
-90 21 0 40 8 53 23 38 41 243 391 243 415 0 31 -43 72 -75 72 -14 0 -36 -10
-48 -22z"/>
<path d="M4524 2729 c-11 -6 -35 -36 -54 -67 -18 -31 -58 -97 -88 -146 l-55
-89 -33 41 c-40 47 -73 58 -114 37 -32 -17 -48 -55 -34 -86 18 -38 149 -180
173 -186 54 -13 70 4 193 207 129 214 138 243 92 279 -29 23 -48 25 -80 10z"/>
<path d="M4144 2159 c-89 -34 -134 -91 -198 -248 -31 -76 -32 -102 -8 -129 19
-22 540 -242 573 -242 40 0 57 21 98 121 52 124 60 186 36 264 -21 66 -92 151
-162 192 -106 62 -243 79 -339 42z m211 -150 c64 -24 118 -67 142 -112 18 -36
14 -86 -13 -144 l-19 -40 -150 63 c-82 35 -167 70 -187 78 l-37 16 20 47 c22
53 53 91 84 103 36 15 103 10 160 -11z"/>
<path d="M746 2059 c-278 -8 -290 -9 -313 -30 -33 -31 -31 -81 3 -108 21 -16
41 -21 88 -21 l62 0 42 -102 c23 -57 42 -107 42 -112 0 -5 -20 -31 -45 -57
-52 -56 -57 -88 -20 -124 36 -37 67 -32 127 22 202 179 437 406 442 430 15 59
-38 115 -106 111 -18 0 -163 -5 -322 -9z m114 -210 l-65 -60 -22 48 c-34 74
-34 73 65 73 l87 -1 -65 -60z"/>
<path d="M3820 1707 c-25 -19 -172 -200 -183 -224 -19 -43 10 -74 235 -258
245 -200 266 -214 302 -197 24 11 187 203 199 235 16 44 -41 105 -87 93 -14
-3 -50 -36 -82 -74 -31 -37 -62 -68 -68 -69 -6 -2 -31 15 -56 36 l-44 39 52
67 c55 72 64 104 36 143 -11 16 -25 22 -54 22 -36 0 -44 -5 -91 -62 -29 -35
-56 -64 -60 -66 -10 -4 -99 67 -99 78 0 5 25 39 55 75 42 52 55 75 55 101 0
55 -69 94 -110 61z"/>
<path d="M1269 1692 c-31 -13 -470 -394 -481 -417 -16 -35 -2 -72 33 -90 40
-21 62 -13 134 49 33 29 66 56 73 60 8 5 28 -10 58 -42 58 -66 113 -92 190
-92 135 1 234 97 234 230 0 72 -25 125 -101 213 -78 91 -101 105 -140 89z m59
-224 c38 -48 42 -93 11 -132 -15 -20 -29 -26 -58 -26 -42 0 -70 17 -102 62
l-23 31 60 53 c32 30 64 53 69 53 6 0 25 -18 43 -41z"/>
<path d="M3520 1397 c-46 -23 -47 -49 -3 -269 23 -111 40 -204 38 -206 -1 -1
-75 61 -165 138 -150 131 -164 141 -197 138 -49 -4 -81 -46 -67 -85 6 -18 100
-107 252 -241 224 -196 246 -212 281 -212 38 0 71 24 84 63 7 18 -105 591
-124 638 -6 15 -22 31 -35 38 -31 14 -33 14 -64 -2z"/>
<path d="M1587 1298 c-47 -64 -277 -525 -277 -556 0 -21 8 -37 26 -51 53 -42
86 -22 145 87 23 42 44 79 45 81 2 2 30 -8 61 -22 79 -35 123 -41 183 -27 107
26 180 119 180 229 -1 108 -53 174 -197 249 -100 52 -133 54 -166 10z m143
-168 c21 -11 46 -30 54 -42 22 -31 20 -80 -4 -106 -34 -36 -66 -38 -126 -9
l-54 27 37 75 c21 41 41 75 46 75 4 0 25 -9 47 -20z"/>
<path d="M2078 1099 c-10 -5 -22 -18 -28 -28 -14 -27 -111 -580 -108 -615 8
-80 126 -83 143 -3 2 12 10 51 17 86 l13 65 74 -123 c41 -67 82 -126 92 -132
50 -26 109 7 109 61 0 18 -22 66 -59 127 l-59 98 39 11 c121 36 191 178 143
292 -18 43 -67 97 -108 119 -28 14 -200 53 -234 53 -10 0 -25 -5 -34 -11z
m220 -195 c29 -33 28 -65 -3 -94 -21 -19 -32 -22 -79 -18 -31 3 -59 7 -62 11
-5 5 10 99 21 133 6 20 97 -4 123 -32z"/>
<path d="M2779 1075 c-104 -33 -201 -127 -236 -230 -11 -32 -17 -78 -17 -126
1 -63 6 -87 31 -140 152 -321 610 -266 684 83 34 156 -56 326 -209 396 -70 32
-183 39 -253 17z m225 -172 c46 -32 96 -118 96 -167 0 -97 -69 -188 -159 -212
-75 -19 -136 -5 -195 48 -121 106 -83 299 69 356 51 20 142 8 189 -25z"/>
</g>
</svg>
