<?xml version="1.0" standalone="no"?>
<!DOCTYPE svg PUBLIC "-//W3C//DTD SVG 20010904//EN"
 "http://www.w3.org/TR/2001/REC-SVG-20010904/DTD/svg10.dtd">
<svg version="1.0" xmlns="http://www.w3.org/2000/svg"
 width="512.000000pt" height="512.000000pt" viewBox="0 0 512.000000 512.000000"
 preserveAspectRatio="xMidYMid meet">

<g transform="translate(0.000000,512.000000) scale(0.100000,-0.100000)"
fill="#0d1b2a" stroke="none">
<path d="M1205 4951 c-92 -24 -173 -90 -215 -176 -20 -42 -25 -68 -28 -172
l-4 -121 -247 -4 -247 -3 -76 -37 c-91 -45 -147 -103 -191 -196 l-32 -67 0
-1696 0 -1695 37 -76 c45 -91 103 -147 196 -191 l67 -32 1183 -3 1183 -2 24
24 c33 33 33 79 0 111 l-24 25 -1152 0 c-875 0 -1162 3 -1193 12 -55 16 -138
99 -154 154 -9 32 -12 340 -12 1298 l0 1256 2240 0 2240 0 0 -695 0 -696 25
-24 c32 -33 78 -33 111 0 l24 25 -2 1102 -3 1103 -32 67 c-44 93 -100 151
-191 196 l-76 37 -247 3 -247 4 -4 121 c-4 116 -6 125 -38 185 -36 69 -79 109
-150 144 -66 32 -196 31 -265 -2 -64 -31 -124 -91 -155 -155 -20 -43 -25 -68
-28 -172 l-4 -123 -318 0 -318 0 -4 123 c-4 116 -6 125 -38 185 -36 69 -79
109 -150 144 -66 32 -196 31 -265 -2 -64 -31 -124 -91 -155 -155 -20 -43 -25
-68 -28 -172 l-4 -123 -318 0 -318 0 -4 123 c-4 116 -6 125 -38 185 -55 104
-142 160 -259 167 -36 2 -79 1 -96 -4z m163 -178 c14 -10 35 -32 46 -47 20
-26 21 -40 21 -326 0 -286 -1 -300 -21 -326 -39 -53 -71 -69 -134 -69 -63 0
-95 16 -134 69 -20 26 -21 43 -24 299 -2 150 0 286 3 304 7 40 49 91 90 109
40 19 120 12 153 -13z m1280 0 c14 -10 35 -32 46 -47 20 -26 21 -40 21 -326 0
-286 -1 -300 -21 -326 -39 -53 -71 -69 -134 -69 -63 0 -95 16 -134 69 -20 26
-21 43 -24 299 -2 150 0 286 3 304 7 40 49 91 90 109 40 19 120 12 153 -13z
m1280 0 c14 -10 35 -32 46 -47 20 -26 21 -40 21 -326 0 -286 -1 -300 -21 -326
-39 -53 -71 -69 -134 -69 -63 0 -95 16 -134 69 -20 26 -21 43 -24 299 -2 150
0 286 3 304 7 40 49 91 90 109 40 19 120 12 153 -13z m-2966 -575 c4 -100 9
-132 26 -168 34 -71 75 -113 144 -151 58 -31 70 -34 148 -34 78 0 90 3 148 34
70 38 101 70 139 145 23 45 27 66 31 174 l4 122 318 0 318 0 4 -122 c4 -100 9
-132 26 -168 34 -71 75 -113 144 -151 58 -31 70 -34 148 -33 72 0 93 4 136 26
76 40 107 70 144 140 32 60 34 69 38 186 l4 122 318 0 318 0 4 -122 c4 -100 9
-132 26 -168 34 -71 75 -113 144 -151 58 -31 70 -34 148 -34 78 0 90 3 148 34
70 38 101 70 139 145 23 45 27 66 31 174 l4 122 216 0 c139 0 229 -4 256 -12
55 -16 138 -99 154 -154 8 -28 12 -134 12 -338 l0 -296 -2240 0 -2240 0 0 296
c0 204 4 310 12 338 15 51 99 137 148 153 21 6 126 11 256 12 l222 1 4 -122z"/>
<path d="M895 2946 c-41 -18 -83 -69 -90 -109 -4 -18 -5 -101 -3 -184 3 -165
8 -180 72 -227 26 -20 41 -21 246 -21 205 0 220 1 246 21 67 49 69 58 69 254
0 165 -2 181 -21 206 -50 67 -55 69 -282 71 -157 2 -214 0 -237 -11z m385
-266 l0 -120 -160 0 -160 0 0 120 0 120 160 0 160 0 0 -120z"/>
<path d="M1855 2946 c-41 -18 -83 -69 -90 -109 -4 -18 -5 -101 -3 -184 3 -165
8 -180 72 -227 26 -20 41 -21 246 -21 205 0 220 1 246 21 67 49 69 58 69 254
0 165 -2 181 -21 206 -50 67 -55 69 -282 71 -157 2 -214 0 -237 -11z m385
-266 l0 -120 -160 0 -160 0 0 120 0 120 160 0 160 0 0 -120z"/>
<path d="M2815 2946 c-41 -18 -83 -69 -90 -109 -4 -18 -5 -101 -3 -184 3 -165
8 -180 72 -227 26 -20 41 -21 246 -21 205 0 220 1 246 21 67 49 69 58 69 254
0 165 -2 181 -21 206 -50 67 -55 69 -282 71 -157 2 -214 0 -237 -11z m385
-266 l0 -120 -160 0 -160 0 0 120 0 120 160 0 160 0 0 -120z"/>
<path d="M3775 2946 c-41 -18 -83 -69 -90 -109 -4 -18 -5 -101 -3 -184 3 -165
8 -180 72 -227 26 -20 41 -21 246 -21 205 0 220 1 246 21 67 49 69 58 69 254
0 165 -2 181 -21 206 -50 67 -55 69 -282 71 -157 2 -214 0 -237 -11z m385
-266 l0 -120 -160 0 -160 0 0 120 0 120 160 0 160 0 0 -120z"/>
<path d="M895 2226 c-41 -18 -83 -69 -90 -109 -4 -18 -5 -101 -3 -184 3 -165
8 -180 72 -227 26 -20 41 -21 246 -21 205 0 220 1 246 21 67 49 69 58 69 254
0 165 -2 181 -21 206 -50 67 -55 69 -282 71 -157 2 -214 0 -237 -11z m385
-266 l0 -120 -160 0 -160 0 0 120 0 120 160 0 160 0 0 -120z"/>
<path d="M1855 2226 c-41 -18 -83 -69 -90 -109 -4 -18 -5 -101 -3 -184 3 -165
8 -180 72 -227 26 -20 41 -21 246 -21 205 0 220 1 246 21 67 49 69 58 69 254
0 165 -2 181 -21 206 -50 67 -55 69 -282 71 -157 2 -214 0 -237 -11z m385
-266 l0 -120 -160 0 -160 0 0 120 0 120 160 0 160 0 0 -120z"/>
<path d="M2815 2226 c-41 -18 -83 -69 -90 -109 -4 -18 -5 -101 -3 -184 3 -135
5 -155 24 -179 32 -44 68 -66 117 -71 39 -5 49 -2 71 20 34 34 34 79 1 112
-13 14 -31 25 -40 25 -13 0 -15 18 -15 120 l0 120 175 0 c173 0 176 0 200 25
16 15 25 36 25 55 0 19 -9 40 -25 55 -24 25 -25 25 -217 25 -138 -1 -202 -5
-223 -14z"/>
<path d="M3748 2225 c-370 -62 -688 -330 -809 -683 -75 -216 -76 -460 -4 -671
118 -349 412 -610 770 -687 280 -60 586 4 820 171 71 50 191 171 240 239 88
124 161 308 184 463 38 257 -36 551 -192 759 -54 71 -183 196 -249 242 -214
147 -502 210 -760 167z m387 -173 c325 -89 554 -320 641 -648 27 -103 26 -312
-3 -419 -87 -320 -318 -551 -638 -638 -107 -29 -316 -30 -419 -3 -386 103
-648 416 -673 805 -16 248 77 490 257 671 132 131 282 211 465 246 94 18 278
11 370 -14z"/>
<path d="M4410 1553 c-8 -3 -158 -148 -332 -322 l-318 -316 -147 147 c-171
170 -191 181 -244 129 -54 -55 -45 -70 169 -284 171 -170 191 -187 222 -187
32 0 61 27 383 348 192 191 355 359 363 374 20 39 18 56 -15 89 -28 28 -49 34
-81 22z"/>
<path d="M895 1506 c-41 -18 -83 -69 -90 -109 -4 -18 -5 -101 -3 -184 3 -165
8 -180 72 -227 26 -20 41 -21 246 -21 205 0 220 1 246 21 67 49 69 58 69 254
0 165 -2 181 -21 206 -50 67 -55 69 -282 71 -157 2 -214 0 -237 -11z m385
-266 l0 -120 -160 0 -160 0 0 120 0 120 160 0 160 0 0 -120z"/>
<path d="M1855 1506 c-41 -18 -83 -69 -90 -109 -4 -18 -5 -101 -3 -184 3 -165
8 -180 72 -227 26 -20 41 -21 246 -21 205 0 220 1 246 21 67 49 69 58 69 254
0 165 -2 181 -21 206 -50 67 -55 69 -282 71 -157 2 -214 0 -237 -11z m385
-266 l0 -120 -160 0 -160 0 0 120 0 120 160 0 160 0 0 -120z"/>
</g>
</svg>
