<?xml version="1.0" standalone="no"?>
<!DOCTYPE svg PUBLIC "-//W3C//DTD SVG 20010904//EN"
 "http://www.w3.org/TR/2001/REC-SVG-20010904/DTD/svg10.dtd">
<svg version="1.0" xmlns="http://www.w3.org/2000/svg"
 width="512.000000pt" height="512.000000pt" viewBox="0 0 512.000000 512.000000"
 preserveAspectRatio="xMidYMid meet">

<g transform="translate(0.000000,512.000000) scale(0.100000,-0.100000)"
fill="#F8F8F2" stroke="none">
<path d="M2685 4954 c-357 -55 -638 -302 -735 -646 -30 -106 -37 -270 -15
-383 63 -333 295 -592 620 -691 81 -25 105 -28 240 -27 134 0 160 3 240 27
305 92 518 305 611 613 24 78 27 105 27 233 0 128 -3 155 -27 233 -95 315
-320 535 -631 619 -69 18 -267 32 -330 22z m330 -188 c113 -36 198 -89 290
-181 92 -92 144 -175 182 -290 22 -68 26 -98 27 -205 1 -91 -4 -143 -17 -190
-18 -67 -74 -187 -105 -228 l-17 -22 -53 70 c-260 347 -784 346 -1046 -2 l-51
-67 -17 22 c-31 39 -87 160 -105 227 -13 47 -18 99 -17 190 1 107 5 137 27
205 38 115 90 199 182 290 112 112 235 179 379 205 89 16 251 5 341 -24z m-92
-961 c32 -8 81 -27 109 -41 64 -32 167 -134 198 -194 l23 -44 -34 -29 c-19
-15 -65 -43 -104 -62 -232 -111 -495 -95 -710 45 l-65 42 28 51 c55 104 178
199 301 232 64 18 186 18 254 0z"/>
<path d="M2690 4673 c-66 -24 -152 -114 -175 -182 -36 -110 -2 -248 80 -319
69 -61 111 -77 205 -77 94 0 136 16 205 77 81 70 116 209 81 316 -21 61 -81
133 -144 169 -58 34 -181 42 -252 16z m185 -163 c92 -57 83 -194 -17 -246
-113 -59 -239 71 -183 189 34 73 131 100 200 57z"/>
<path d="M1118 4855 c-23 -13 -37 -48 -117 -287 -50 -150 -91 -283 -91 -294 0
-12 12 -33 26 -48 26 -25 30 -26 155 -26 l127 0 -70 -213 c-80 -238 -81 -256
-23 -284 32 -15 38 -15 69 -1 33 16 36 22 126 293 96 289 99 306 58 345 -20
18 -35 20 -149 20 l-127 0 70 213 c78 233 80 255 28 282 -35 18 -47 18 -82 0z"/>
<path d="M1019 2963 c-452 -454 -567 -575 -616 -648 -158 -235 -230 -453 -240
-730 -8 -242 30 -430 132 -643 98 -204 233 -369 414 -505 496 -374 1183 -367
1671 17 91 72 1105 1079 1127 1120 9 17 12 39 8 55 -9 37 -560 588 -597 596
-15 4 -37 1 -50 -5 -13 -7 -259 -247 -548 -535 -310 -308 -543 -533 -570 -548
-129 -74 -313 -74 -440 0 -215 126 -290 382 -178 608 13 25 216 237 548 570
290 292 533 540 540 553 24 49 7 70 -288 365 -266 265 -290 287 -322 287 -33
0 -70 -35 -591 -557z m806 147 l210 -210 -125 -125 -125 -125 -212 212 -213
213 122 122 c68 68 125 123 128 123 3 0 100 -94 215 -210z m-478 -900 c-300
-302 -326 -330 -360 -401 -117 -239 -73 -523 108 -703 196 -194 464 -237 715
-115 82 40 97 54 405 360 l321 319 212 -213 213 -213 -333 -330 c-395 -392
-461 -442 -690 -523 -145 -51 -236 -65 -403 -65 -341 0 -616 113 -856 353
-177 177 -281 370 -335 621 -25 116 -25 352 0 470 21 96 66 231 103 305 73
146 132 216 467 553 l330 332 213 -212 213 -212 -323 -326z m1768 -390 l210
-210 -125 -125 -125 -125 -212 212 -213 213 122 122 c68 68 125 123 128 123 3
0 100 -94 215 -210z"/>
<path d="M4010 3266 c-332 -71 -572 -314 -636 -644 -27 -144 -13 -289 45 -438
38 -99 85 -170 170 -258 311 -322 819 -327 1135 -10 156 156 231 338 231 564
0 174 -36 298 -124 432 -113 173 -274 288 -481 345 -78 21 -260 26 -340 9z
m304 -166 c117 -30 209 -83 297 -170 131 -130 197 -301 186 -480 -6 -100 -43
-223 -88 -295 l-32 -50 -15 25 c-9 14 -49 58 -89 98 -190 191 -482 226 -719
87 -58 -34 -156 -125 -185 -172 -26 -42 -35 -36 -82 60 -121 246 -72 533 123
727 163 163 387 226 604 170z m-55 -871 c110 -25 234 -117 280 -207 l21 -42
-57 -37 c-134 -86 -310 -120 -463 -89 -88 18 -203 67 -254 109 l-30 24 33 51
c99 155 291 233 470 191z"/>
<path d="M4066 3024 c-70 -22 -149 -103 -170 -174 -34 -113 -11 -206 69 -286
41 -41 65 -56 110 -70 219 -63 414 132 351 351 -14 45 -29 69 -70 110 -80 80
-178 103 -290 69z m178 -183 c26 -27 31 -39 31 -81 0 -43 -5 -54 -33 -82 -28
-28 -39 -33 -82 -33 -43 0 -54 5 -82 33 -28 28 -33 39 -33 81 0 52 25 92 70
112 37 16 96 3 129 -30z"/>
<path d="M3865 1415 c-14 -13 -25 -36 -25 -50 0 -14 59 -142 130 -285 138
-275 149 -290 206 -276 16 4 67 46 115 93 l88 85 101 -201 c106 -212 121 -231
177 -216 31 7 63 44 63 72 0 34 -256 540 -279 553 -47 25 -71 13 -167 -81
l-93 -91 -100 200 c-57 114 -109 206 -120 212 -33 17 -71 11 -96 -15z"/>
</g>
</svg>
