<?xml version="1.0" standalone="no"?>
<!DOCTYPE svg PUBLIC "-//W3C//DTD SVG 20010904//EN"
 "http://www.w3.org/TR/2001/REC-SVG-20010904/DTD/svg10.dtd">
<svg version="1.0" xmlns="http://www.w3.org/2000/svg"
 width="512.000000pt" height="512.000000pt" viewBox="0 0 512.000000 512.000000"
 preserveAspectRatio="xMidYMid meet">

<g transform="translate(0.000000,512.000000) scale(0.100000,-0.100000)"
fill="#F8F8F2" stroke="none">
<path d="M655 5106 c-41 -18 -83 -69 -90 -109 -3 -18 -4 -1054 -3 -2304 l3
-2272 21 -27 c44 -60 67 -69 184 -72 l108 -4 4 -108 c4 -118 12 -140 72 -184
l27 -21 1739 0 1739 0 27 21 c15 11 37 33 48 48 l21 27 0 2299 0 2299 -21 27
c-11 15 -33 37 -48 48 -26 20 -42 21 -399 24 l-371 3 -141 138 c-77 76 -156
147 -175 157 -34 18 -80 19 -1375 21 -1100 2 -1345 0 -1370 -11z m2557 -530
c3 -379 4 -396 23 -422 11 -15 36 -35 55 -45 32 -18 65 -19 465 -19 477 0 468
-1 481 64 3 21 -1 57 -11 92 -15 53 -28 69 -187 231 l-171 173 271 0 272 0 0
-2250 0 -2250 -1690 0 -1690 0 0 85 0 85 55 0 c46 0 60 4 80 25 34 33 33 77
-1 104 -25 20 -39 21 -240 21 l-214 0 0 2250 0 2250 1250 0 1249 0 3 -394z
m503 14 l350 -350 -353 0 -352 0 0 350 c0 193 1 350 3 350 1 0 160 -157 352
-350z"/>
<path d="M1742 4058 l-222 -223 -87 88 -88 87 82 0 c76 0 83 2 102 26 26 33
27 65 2 95 -18 23 -27 24 -143 27 -67 2 -134 -1 -148 -6 -21 -8 -31 -5 -58 19
-93 82 -186 -20 -99 -109 l36 -37 3 -277 c3 -263 4 -278 24 -305 11 -15 36
-38 54 -50 32 -23 39 -23 319 -23 268 0 288 1 319 20 18 11 41 34 52 52 19 31
20 51 20 302 l0 270 80 82 c65 67 80 87 80 113 0 41 -31 71 -73 71 -29 0 -56
-24 -255 -222z m-387 -269 c80 -80 110 -99 159 -99 57 0 87 17 169 98 l77 77
0 -173 0 -172 -245 0 -245 0 0 170 c0 94 3 170 8 170 4 0 39 -32 77 -71z"/>
<path d="M2210 3987 c-51 -26 -57 -102 -10 -127 11 -6 170 -10 400 -10 230 0
389 4 400 10 27 14 41 62 26 91 -23 47 -37 49 -426 49 -273 0 -371 -3 -390
-13z"/>
<path d="M4133 3910 c-12 -5 -26 -18 -32 -29 -8 -14 -11 -535 -11 -1715 l0
-1696 -1334 0 c-734 0 -1342 -3 -1351 -6 -8 -4 -23 -20 -31 -36 -19 -37 -5
-80 32 -97 18 -8 390 -11 1365 -11 1481 0 1382 -5 1435 66 l29 37 3 1711 c2
1210 -1 1719 -9 1737 -5 15 -22 31 -35 38 -29 13 -31 13 -61 1z"/>
<path d="M2220 3673 c-52 -19 -68 -85 -30 -123 20 -20 33 -20 729 -20 674 0
710 1 732 18 30 25 30 75 0 105 l-22 22 -697 2 c-383 1 -704 -1 -712 -4z"/>
<path d="M1244 3111 c-49 -12 -90 -47 -108 -91 -13 -34 -16 -85 -16 -302 0
-244 1 -265 21 -304 12 -26 36 -53 57 -66 36 -23 43 -23 317 -23 264 0 282 1
315 21 19 11 45 35 57 54 23 32 23 39 23 320 0 281 0 288 -23 320 -12 19 -38
43 -57 54 -33 20 -53 21 -295 23 -143 1 -274 -2 -291 -6z m516 -391 l0 -250
-242 2 -243 3 -3 235 c-1 129 0 240 2 247 4 10 61 13 246 13 l240 0 0 -250z"/>
<path d="M2225 2953 c-36 -9 -55 -34 -55 -73 0 -72 -11 -70 432 -70 375 0 396
1 412 19 25 27 24 78 -3 104 -21 22 -26 22 -394 24 -204 0 -381 -1 -392 -4z"/>
<path d="M2225 2633 c-56 -14 -76 -91 -34 -129 20 -18 47 -19 730 -19 l708 0
22 22 c29 29 29 77 0 106 l-22 22 -692 1 c-380 1 -701 0 -712 -3z"/>
<path d="M1200 2048 c-18 -13 -43 -36 -54 -51 -20 -27 -21 -42 -24 -305 -3
-271 -2 -278 20 -322 17 -33 35 -51 68 -68 44 -22 50 -23 322 -20 263 3 278 4
305 24 15 11 38 36 51 54 22 32 22 39 22 319 0 268 -1 288 -20 319 -11 18 -34
41 -52 52 -31 19 -51 20 -319 20 -280 0 -287 0 -319 -22z m560 -373 l0 -245
-242 2 -243 3 -3 243 -2 242 245 0 245 0 0 -245z"/>
<path d="M2190 1890 c-27 -27 -26 -81 1 -106 20 -18 42 -19 410 -19 386 0 389
0 410 22 29 29 28 81 -2 105 -19 17 -54 18 -410 18 -376 0 -390 -1 -409 -20z"/>
<path d="M2190 1570 c-27 -27 -26 -81 1 -106 20 -18 47 -19 730 -19 l708 0 22
22 c30 30 30 80 0 105 -22 17 -58 18 -732 18 -696 0 -709 0 -729 -20z"/>
</g>
</svg>
