<?xml version="1.0" standalone="no"?>
<!DOCTYPE svg PUBLIC "-//W3C//DTD SVG 20010904//EN"
 "http://www.w3.org/TR/2001/REC-SVG-20010904/DTD/svg10.dtd">
<svg version="1.0" xmlns="http://www.w3.org/2000/svg"
 width="512.000000pt" height="512.000000pt" viewBox="0 0 512.000000 512.000000"
 preserveAspectRatio="xMidYMid meet">

<g transform="translate(0.000000,512.000000) scale(0.100000,-0.100000)"
fill="#0d1b2a" stroke="none">
<path d="M2453 5008 c-328 -276 -2322 -2022 -2331 -2042 -6 -15 -12 -49 -12
-76 0 -44 5 -55 38 -91 48 -54 85 -69 172 -69 l70 0 0 -1206 c0 -909 3 -1217
12 -1247 15 -51 100 -145 153 -168 38 -18 125 -19 1960 -19 1909 0 1920 1
1965 21 55 25 114 80 143 134 l22 40 5 1225 5 1225 90 5 c104 6 142 24 174 80
26 47 28 121 4 161 -10 16 -140 138 -290 270 -150 132 -273 245 -273 250 0 6
100 200 223 431 222 420 298 565 384 731 41 80 44 90 33 117 -20 48 -155 169
-224 201 -69 32 -236 62 -272 49 -21 -8 -81 -113 -258 -451 -193 -366 -352
-659 -358 -656 -3 1 -246 205 -539 452 -857 723 -785 665 -823 665 -24 0 -46
-10 -73 -32z m2262 -173 c28 -13 67 -42 88 -63 l38 -39 -52 -99 c-29 -54 -54
-101 -56 -103 -3 -5 -204 98 -234 120 l-22 16 54 103 53 102 41 -6 c22 -4 63
-18 90 -31z m-1536 -519 l640 -539 -59 -111 c-33 -61 -126 -237 -209 -391
l-149 -280 -153 -7 c-237 -11 -482 -56 -664 -122 l-67 -24 -56 19 c-416 145
-920 161 -1401 43 -181 -44 -264 -73 -289 -100 l-22 -25 0 -1133 c0 -1120 0
-1134 20 -1159 33 -42 67 -42 161 -4 443 182 892 202 1334 60 61 -19 139 -48
174 -64 35 -16 72 -29 82 -29 10 0 56 15 101 34 496 204 1000 204 1496 0 95
-39 115 -41 142 -14 20 20 20 33 20 1170 0 1093 -1 1151 -18 1168 -10 10 -66
31 -125 47 -59 17 -106 32 -104 35 23 52 243 460 248 460 13 0 508 -444 503
-452 -3 -4 -59 -8 -125 -8 -106 0 -121 -2 -139 -20 -20 -20 -20 -33 -20 -1272
0 -1173 -1 -1255 -18 -1288 -10 -20 -32 -42 -52 -52 -33 -17 -145 -18 -1915
-18 -1472 0 -1885 3 -1904 13 -13 6 -34 25 -45 40 -21 28 -21 29 -26 1292 -5
1196 -6 1265 -23 1282 -14 15 -40 19 -135 23 l-117 5 105 91 c1387 1208 2156
1873 2162 1872 4 -2 296 -246 647 -542z m1346 138 c69 -36 125 -69 125 -73 0
-8 -762 -1441 -788 -1481 -8 -13 -44 -80 -78 -149 -35 -68 -67 -128 -72 -133
-12 -12 -254 121 -250 139 3 13 931 1762 935 1763 2 0 59 -30 128 -66z m-2555
-1635 c122 -13 260 -43 378 -80 l92 -30 0 -1029 c0 -585 -4 -1030 -9 -1030 -5
0 -25 7 -44 15 -67 28 -243 75 -363 97 -176 32 -518 32 -689 0 -122 -23 -297
-70 -362 -97 -19 -8 -39 -15 -44 -15 -5 0 -9 445 -9 1029 l0 1030 54 15 c332
97 681 130 996 95z m1340 4 c0 -5 -12 -26 -25 -48 -14 -23 -25 -55 -25 -76 0
-19 -13 -163 -30 -319 -27 -255 -28 -286 -15 -307 20 -30 60 -39 95 -22 15 8
133 103 262 211 l233 198 67 127 c96 183 79 169 176 143 l82 -22 0 -1029 c0
-566 -4 -1029 -8 -1029 -5 0 -42 11 -83 25 -105 36 -246 71 -374 91 -135 22
-436 25 -575 5 -112 -16 -294 -59 -399 -95 -41 -15 -78 -26 -83 -26 -4 0 -8
463 -8 1030 l0 1029 94 30 c112 36 199 56 321 75 97 15 295 21 295 9z m257
-317 l33 -16 -106 -91 c-58 -50 -107 -89 -108 -87 -2 1 3 59 10 128 7 69 13
131 13 138 1 9 21 3 64 -21 34 -19 77 -42 94 -51z"/>
<path d="M1249 2429 c-44 -16 -49 -44 -49 -264 0 -217 5 -245 47 -264 16 -7
157 -11 442 -11 408 0 419 1 445 21 l26 20 0 233 c0 224 -1 234 -21 252 -20
18 -44 19 -443 21 -253 1 -431 -2 -447 -8z m761 -264 l0 -115 -325 0 -325 0 0
115 0 115 325 0 325 0 0 -115z"/>
<path d="M1241 1587 c-52 -26 -48 -111 5 -136 17 -8 154 -11 443 -11 408 0
419 1 445 21 37 29 37 89 0 118 -26 21 -37 21 -448 21 -314 0 -427 -3 -445
-13z"/>
<path d="M1220 1133 c-26 -33 -21 -79 11 -105 19 -17 57 -18 455 -18 421 0
435 1 454 20 13 13 20 33 20 59 0 73 12 71 -481 71 l-438 0 -21 -27z"/>
<path d="M2975 1601 c-41 -17 -55 -53 -42 -104 5 -17 18 -32 33 -37 33 -13
814 -13 847 -1 45 17 54 93 15 127 -19 18 -46 19 -427 21 -223 1 -415 -2 -426
-6z"/>
<path d="M2964 1170 c-42 -17 -49 -93 -12 -126 19 -18 45 -19 438 -19 393 0
419 1 438 19 39 34 30 110 -15 127 -31 11 -820 11 -849 -1z"/>
</g>
</svg>
